<?xml version="1.0" encoding="UTF-8"?>
<svg id="Layer_1" xmlns="http://www.w3.org/2000/svg" version="1.1" viewBox="0 0 100 100">
  <!-- Generator: Adobe Illustrator 29.0.0, SVG Export Plug-In . SVG Version: 2.1.0 Build 186)  -->
  <g id="_x30_prtUV">
    <g>
      <path d="M49.5,51.4l-16.6,24.4.2.4c4.2,2.2,7.4,6.1,9.6,10.3-.4.3-.8.8-1.3.4s-1.3-2.2-1.7-2.7c-1.5-2.1-3.4-4.2-5.5-5.7s-2.7-1.1-3-2.2l18.3-27.4c.2-.3.8-.4,1.1-.3s1.8,2.4,2.1,2.9c5.6,8.1,10.8,16.4,16.3,24.5.2,1.3-1.3,1.6-2.2,2.2-3.5,2.4-6.6,5.3-8.3,9.3l-1.1-.4c-.4-.6,1.8-3.6,2.2-4.2,1.6-2.1,3.6-3.8,5.7-5.3s2.1-1.1,2-1.5l-16.6-24.4v20.1c2.1.7,3.8,2.2,3.8,4.6-.2,5.9-9.7,5.6-8.7-1.1s1.9-3,3.6-3.6v-20.1ZM48.1,73.7c-3.1,2.9,2.1,7.5,4.6,4,2.1-3-2-6.4-4.6-4Z"/>
      <path d="M19.5,20c5,18.1,24.6,28.1,42.3,21.1,9.1-3.6,16.4-11.7,18.9-21.1-.8,0-2.5.4-2.8-.7s0-5.6,0-5.9.4-.5.7-.5c.8-.1,4.3-.1,5.2,0s.9.3,1,.8,0,5.4,0,5.8c-.4.9-1.8.4-2.6.6-2.9,11.3-11.7,20.3-23,23.5-18,5.1-36.4-5.6-41.1-23.5-.8-.1-2.5.4-2.8-.7s0-5.6,0-5.9.5-.5.9-.5c.6,0,5.1,0,5.4.1s.4.3.4.4c.2.3.2,5.5,0,5.9-.3,1-1.9.6-2.6.7ZM16.5,18.6h4.2l.3-.3v-3.7l-.3-.3h-4.2v4.3ZM83.5,14.3h-4.2l-.3.3v3.6c0,0,.2.3.2.4h4.3v-4.3Z"/>
    </g>
  </g>
</svg>