<?xml version="1.0" encoding="UTF-8"?>
<svg id="Layer_1" xmlns="http://www.w3.org/2000/svg" version="1.1" viewBox="0 0 100 100">
  <!-- Generator: Adobe Illustrator 29.0.0, SVG Export Plug-In . SVG Version: 2.1.0 Build 186)  -->
  <g id="xxqWfx">
    <g>
      <path d="M79.7,33.5c1.2,1.4,4.1,0,4.8,2.4s.4,6.5-.3,7.7c-1.1,2-5-.2-5.7,4.2s2.9,3.2,1.6,5.9-3.9,4-4.3,4.3c-3.8,2.7-3.9-2.7-7.2-1.3-2.7,1.2-.7,4.7-3.1,5.1-1.1.2-7.2.3-8,0-1.8-.9-.1-4.8-3.5-5.3s-2.7,2.8-5.3,2.2-5.5-4.6-5.7-5.7c-.5-2.6,3-2.8,1.6-6.3-1.2-3-4.9-1-5.5-3.9s-.3-6,.2-7.1c.9-2.2,4.6-.6,5.2-3.6.5-2.6-2.5-3.1-1.3-5.6s5-5.2,5.7-5.4c1.5-.4,3.5,3,6.7.4s.1-4.3,2.7-4.8,6.4-.3,7.5.2c2.2.9.3,4.8,4.3,5.5,2.5.5,3-2.6,5.8-.7s4.4,4.3,4.7,5.2c.6,2-3.2,4-.8,6.5ZM65,18.6h-6.3c0,3.7-3.4,6.5-6.9,5.9s-1.8-1.5-3-1-3.9,3.7-3.9,4c1.4,2.4,2.3,4,.7,6.6s-2.8,1.4-4.7,2.5v6.1c5.4-.3,8,6,4,9.7l4.2,4.5c.6.1,1.3-1.1,2-1.5,3.7-2.1,8,.2,7.2,4.7h6.7c-.2-5.3,5.5-7.4,8.9-3.2l4.4-4.2c.3-1-.9-1.4-1.3-2.1-2-3.5,1.6-8.6,5.7-7.9v-6.3c-3.6.1-6.7-2.9-5.5-6.5s1.6-2,1-3c-1.2-.5-2.5-3.2-3.6-3.5s-2.6,1.1-3.9,1.2c-2.9,0-6.2-2.8-5.7-5.9Z"/>
      <path d="M36.8,33.2c1.7.5-.4,3.1.2,4.3l-.8-2.3h-4.5c-.4,2.7-2.3,4.8-5.2,4.8s-2.1-.8-2.8-.8-3,2.4-3.2,3.1.9,1.3,1,2.2c.5,3.3-1.4,4.7-4.3,5.1v4.5c4.4.1,6.5,5.2,3.2,8.1l3.3,3.3c3.2-3.3,7.6-1.8,7.7,2.8h4.7c0-4.3,4.5-6.3,7.3-2.8l3.3-2.9-1.1-3.3c1.1,1.3,4.4,1.4,3.3,3.8s-3.5,3.7-3.7,3.8c-3.1,2.1-3.6-1.7-5.5-1.2s-.8,3.5-2.8,4.4-5.4.4-6.3,0c-1.8-.8-.7-4.1-3.1-4.5s-2.6,3-5.1,1.5c-.4-.2-4-4-4.1-4.2-.6-2.2,2.5-2.8,1.2-5.5s-2.4-.9-3.5-1.6-1.3-6-.5-7.3,3.4-.7,3.8-2.1c.7-2.1-1.9-3.2-.9-5.3s4-4,4.5-4.2c1.6-.5,3.1,2.3,5.5.4s.9-4.1,2.2-4.1,4.9-.3,5.9,0Z"/>
      <path d="M65.3,64.5c-.1,2.3,2.3,1,3,2.3s.4,5.2-.3,5.8-2.3.2-2.9,1.3c-.9,1.7,1.4,2,.9,3.7s-3.1,3.3-3.6,3.5c-1.6.7-2.2-1.2-3.5-1.1s-.5,1.2-1,2.2-3.4,1.4-4.7,1.2c-2.7-.4-1.8-2.7-2.4-3.2-1.4-1.1-2.3,1.6-3.8,1.2s-3.5-3.2-3.6-3.5c-.8-1.7,1.1-1.8.9-3.6s-1-.9-2-1.2-1.3-2.3-1.4-3.3,1.3-.4,1.6-.2.2,1,.6,1.4c1.1,1,3.1.5,3.2,3.6s-2,2.7,1,4.5c.6.1,3-2.7,5.1,0,.9,1.2.2,2.5,2.4,2.4,2.2-.1,1.1-2.8,3.7-3.4s3,2.6,5.1-.8c-1.5-2.5-.4-6.1,2.8-6.1v-3.1c-2.1-.2-3.3-1.5-3.1-3.6h1.9Z"/>
      <path d="M28.9,47.6c4-5.3,13.6-.5,10.6,6.8s-16.6,1.2-10.6-6.8ZM32.5,47.5c-4.7,1.1-4.1,9.8,2.2,8.5,5.4-1.1,3.8-9.9-2.2-8.5Z"/>
      <path d="M51.3,72.6c-5-5,3.8-12.5,7.7-5.9,3,5.2-3.9,9.8-7.7,5.9ZM57,66.9c-3-3.3-7.6,3.1-3.4,4.8s5.5-2.6,3.4-4.8Z"/>
      <path d="M60.6,28.2c14.9-1.6,16.8,20.7,3,22.3-15.8,1.9-17.4-20.8-3-22.3ZM68,46.5c8.7-7.7-2.1-21.8-11.9-14.5-10.1,7.5,2.5,22.8,11.9,14.5Z"/>
    </g>
  </g>
</svg>