<?xml version="1.0" encoding="UTF-8"?>
<svg id="Layer_1" xmlns="http://www.w3.org/2000/svg" version="1.1" viewBox="0 0 100 100">
  <!-- Generator: Adobe Illustrator 29.0.0, SVG Export Plug-In . SVG Version: 2.1.0 Build 186)  -->
  <g id="d0BXYI">
    <g>
      <path d="M19.3,70.8c-2.6-2.9-4.1-6.1-3.8-10.1s.6-2.4.5-2.8-1.6-1.9-1.9-2.7c-2-3.9-1.2-9,1.9-12-1.1-4.1-.3-8.5,2.5-11.8s1.6-1.4,1.7-1.5c.2-.4,0-1.1.1-1.7.8-5,4.7-8.2,9.7-8.6,3.6-10.4,18.3-8.5,19,2.8v55.6c-.7,7.8-9.6,11.8-15.8,6.8-.6-.5-1.4-1.8-1.9-2-.7-.3-2.2-.5-3.2-.9-3.5-1.4-6-4.4-7.1-8s0-1.5-1.6-3.4ZM17.5,59.2c-.9,4.5.7,9.2,4.7,11.6,0,4.3,2.8,8.4,6.9,9.8s2.6.4,3.2.7.9,1.2,1.3,1.5c4.8,5,12.8,2.1,13.7-4.6V21.8c-.9-8.5-12.8-9.9-15.5-1.8,4.7.7,8.4,5,8.2,9.8-4.1,1.5-5.9,6.2-4.4,10.2-.5,0-1.4.6-1.7.2-.6-.8-.6-3.7-.4-4.8-3.8,0-7.1,3.4-7.2,7.2h-1.8c.4-5,4.4-9,9.5-9,.8-2.1,2.3-3.9,4.3-5-2-10.7-17-8.7-16.4,2.1-4.2,3.1-5.7,8.1-3.9,13-7.9,6.7-.3,18.8,9.2,14.4-1.3-2.6-1.6-5.6,0-8.1l1.3.8c-3,5.5,2.5,11.2,8.1,8.4.3,0,.9,1.1.7,1.4-3,1.8-6.8,1.3-9.2-1.2-3.5,2-7.4,1.7-10.8-.2Z"/>
      <path d="M70.3,19.7c4.4.2,8.3,3,9.4,7.4.2.8.3,2.3.5,2.9s1.3,1.2,1.6,1.6c2.7,3.3,3.6,7.5,2.4,11.7,4.1,4,4.1,10.7,0,14.7,1.3,4.6.3,8.9-2.8,12.5s-1.3,1.1-1.5,1.3c-.3.5-.5,2.5-.8,3.4-1.2,3.2-3.9,6-7.1,7.1s-2.6.5-3,.8-1.1,1.3-1.6,1.8c-5.6,4.9-14.5,1.6-15.8-5.7,0-19.4,0-38.8,0-58.2,1.8-10,16-11,18.8-1.2ZM68.6,19.9c-2.5-8.2-14.7-6.6-15.5,1.9v56.5c.8,6.1,8,9.4,12.9,5.4.6-.5,1.7-2.1,1.9-2.3.5-.3,1.1-.1,1.7-.3,4.4-1.1,7.3-3.9,8.4-8.4s0-1.7.3-2.1.7-.4.9-.6c3.1-2.9,4.7-6.7,3.6-10.9-.7.2-1.4.7-2.1,1-2.8,1-6,.8-8.5-.7-2.2,1.9-4.6,2.7-7.5,2s-2.7-.8-1.3-2,1.4.4,2.1.5c5.2.7,8.8-4.3,6.3-8.9l1.3-1c1.7,2.3,1.4,5.7,0,8.1,9.7,4.4,17-7.6,9.2-14.5,1.9-4.7.2-10-3.9-12.9.7-10.9-14.3-12.8-16.4-2.1,1.9,1.1,3.6,2.9,4.3,5,5.1,0,9.2,4,9.5,9h-1.8c-.1-4-3.4-7-7.2-7.4.4,1.9,0,3.5-.5,5.3l-1.5-.7c1.5-4.2-.5-8.4-4.4-10.2,0-4.7,3.5-8.9,8.2-9.7Z"/>
      <path d="M28.9,67.7l1.5.5c-.2,1.7-.1,3.4,1,4.8,2.1,2.9,6,2.9,8.5.6l1.1,1.1c-5.5,5.4-14,.2-12.1-7.1Z"/>
      <path d="M59.2,74.5l1.2-.9c4.5,3.8,10.6.3,9.5-5.5l1.5-.5c2.2,7.3-7.1,12.7-12.1,6.9Z"/>
    </g>
  </g>
</svg>