<?xml version="1.0" encoding="UTF-8"?>
<svg id="Layer_2" xmlns="http://www.w3.org/2000/svg" version="1.1" viewBox="0 0 401.2 401.2">
  <!-- Generator: Adobe Illustrator 29.0.0, SVG Export Plug-In . SVG Version: 2.1.0 Build 186)  -->
  <defs>
    <style>
      .st0, .st1 {
        fill-rule: evenodd;
      }

      .st0, .st2 {
        fill: #fff;
      }

      .st1 {
        fill: #f15a31;
      }
    </style>
  </defs>
  <g id="Layer_2-2">
    <g id="Layer_1-2">
      <path class="st1" d="M368,84.6c0-15.4-12.4-27.9-27.7-27.9h-186.9c0-2.4-1.6-4.4-4-5.2-3-1-6.2.8-7.1,3.8-2.2,7.3-6.8,13.3-12.5,17.6-5.9,4.3-13,6.8-20.6,6.8s-18.2-4-24.6-10.1c-6.3-6.3-10.1-15-10.1-24.5s.9-9.5,2.8-13.8,4.6-8.2,8.1-11.6c2.2-2.2,2.4-5.7.3-8.1-2.1-2.2-5.7-2.4-8.1-.2-4.6,4.4-8.2,9.7-10.8,15.2-2.5,5.7-3.8,11.9-3.8,18.2s.5,7.9,1.6,11.7h-3.6c-15.4,0-28,12.5-28,27.9v216.2c0,15.4,12.5,27.9,27.7,27.9h46.7l-44,9.7-1.4,45c-.2,6.5,3.5,9.8,7.6,7.4l103.1-58.9c6.8-4,3.6-3,13.5-3h153.9c15.4,0,28-12.5,28-27.9V84.6h-.2,0ZM142.5,290.8h-67.2V99h67.2v191.8h0ZM338.5,290.8h-177.1v-39.8l89-102.5h-86.2l-.3-49.9h171v39.3l-89,102.3,92.5.3v50h0v.2h0Z"/>
    </g>
  </g>
  <path class="st0" d="M108.9,9.9c19.3,0,35,15.7,35,35s-15.7,35-35,35-35-15.7-35-35,15.7-35,35-35"/>
  <path class="st2" d="M75,98.9h67.2v192h-67.2V98.9ZM161.2,290.8v-39.7l89-102.5h-86.2l-.4-50h171.2v39.3l-89,102.5,92.6.4v50h-177.3Z"/>
</svg>