<?xml version="1.0" encoding="UTF-8"?>
<svg id="Layer_2" xmlns="http://www.w3.org/2000/svg" version="1.1" viewBox="0 0 964.6 254.9">
  <!-- Generator: Adobe Illustrator 29.0.0, SVG Export Plug-In . SVG Version: 2.1.0 Build 186)  -->
  <defs>
    <style>
      .st0 {
        fill: #f15a31;
      }

      .st0, .st1 {
        fill-rule: evenodd;
      }

      .st1, .st2 {
        fill: #161616;
      }
    </style>
  </defs>
  <g id="Layer_1-2">
    <path class="st0" d="M948.9,61.2c0-9.7-7.8-17.6-17.5-17.6h-118c0-1.5-1-2.8-2.5-3.3-1.9-.6-3.9.5-4.5,2.4-1.4,4.6-4.3,8.4-7.9,11.1-3.7,2.7-8.2,4.3-13,4.3s-11.5-2.5-15.5-6.4c-4-4-6.4-9.5-6.4-15.5s.6-6,1.8-8.7c1.2-2.7,2.9-5.2,5.1-7.3,1.4-1.4,1.5-3.6.2-5.1-1.3-1.4-3.6-1.5-5.1-.1-2.9,2.8-5.2,6.1-6.8,9.6-1.6,3.6-2.4,7.5-2.4,11.5s.3,5,1,7.4h-2.3c-9.7,0-17.7,7.9-17.7,17.6v136.5c0,9.7,7.9,17.6,17.5,17.6h29.5l-27.8,6.1-.9,28.4c-.1,4.1,2.2,6.2,4.8,4.7l65.1-37.2c4.3-2.5,2.3-1.9,8.5-1.9h97.2c9.7,0,17.7-7.9,17.7-17.6V61.2s0,0,0,0ZM806.5,191.4h-42.4v-121.1h42.4v121.1ZM930.3,191.4h-111.8v-25.1l56.2-64.7h-54.4l-.2-31.5h108v24.8l-56.2,64.6,58.4.2v31.6h0Z"/>
    <path class="st2" d="M227.4,191.4v-121.2h40.5v14.6c0,0,0,0,1.4-1.6,2.8-3.2,6.2-5.9,10-8.1,8-4.6,17.8-6.8,29.3-6.8v38.2c-1.9-.3-3.6-.5-5-.6-1.4,0-3-.1-4.6-.1-8.6,0-15.7,2.3-21,7.1-5.4,4.7-8,12.3-8,22.9v55.7h-42.5,0Z"/>
    <polygon class="st2" points="500.4 112.3 537.4 70.1 587.7 70.1 537.5 122 591.9 191.4 540.5 191.4 506.6 148.9 500.4 156.6 500.4 191.4 457.9 191.4 457.9 25.4 500.4 25.4 500.4 112.3"/>
    <path class="st2" d="M651.8,191.4v-121.2h40.5v35.3l-6-10.1c3.6-9.1,9.4-15.9,17.5-20.5s17.8-6.8,29.3-6.8v38.2c-1.9-.3-3.6-.5-5-.6-1.4,0-3-.1-4.6-.1-8.7,0-15.7,2.3-21,7.1-5.4,4.7-8,12.3-8,22.9v55.7h-42.5,0Z"/>
    <path class="st1" d="M621.5,14.1c12.2,0,22.1,9.9,22.1,22.1s-9.9,22.1-22.1,22.1-22.1-9.9-22.1-22.1,9.9-22.1,22.1-22.1"/>
    <path class="st1" d="M267.5,210.2c5-21.6,37.5-18.2,36.1,3.1-.2,3.2-.8,5.6-2.2,8.4,14.1,3.9,27-8.3,29.8-21.7,5.8-28.1,6.3-66.6,8.2-97.7l16.1-5.7c-5.1,0-25.9.4-30.9,0-3.9-.3-6.9-3.5-7-7.4,0-1.3,0-9.9,0-11.2.2-3.1.9-5.6,3.7-7.4,2.1-1.4,3.6-1.3,5.9-1.3h14.5c.9-15.2,1.8-33.8,10.7-46.7,21.2-30.5,69.4-29.7,91-1.2.5.6.8,1.1,1.1,1.7.4.6.7,1.1,1,1.7,1,1.9,1.7,4,2,6.1.2,1.1.3,2.2.3,3.3,0,11.6-9.4,21.1-21.1,21.1s-21.1-9.4-21.1-21.1,4.1-14.4,10.3-18.1c-4.8,1.2-8.8,4-11.5,8-9.9-2.3-21.4,4.1-24.8,17.3-1.9,7.4-1.7,20.3-2,27.8,1.4,0,2.7,0,4,0,2.5,0,7.8,0,10.3,0,4.7,0,7.4.1,8,5.2.2,2.1.4,4.9.2,7.8-.1,3.9-.2,8.1-1,10.9-1,4.1-2.8,3.4-6.4,3.4-6.3.1-17,0-17.1,0,0,0-3.7,55-6.5,84.3-8.5,88.5-112.6,76.3-101.8,29.3"/>
    <rect class="st2" x="600.3" y="70.2" width="42.4" height="121.1"/>
    <rect class="st2" x="406.4" y="70.2" width="42.4" height="121.1"/>
    <path class="st1" d="M197.1,14.1c12.2,0,22.1,9.9,22.1,22.1s-9.9,22.1-22.1,22.1-22.1-9.9-22.1-22.1,9.9-22.1,22.1-22.1"/>
    <path class="st1" d="M117.2,108.6c6.1,0,11.6,2.5,15.6,6.5,4,4,6.5,9.5,6.5,15.6s-2.5,11.6-6.5,15.6c-4,4-9.5,6.5-15.6,6.5s-11.6-2.5-15.6-6.5c-4-4-6.5-9.5-6.5-15.6s2.5-11.6,6.5-15.6,9.5-6.5,15.6-6.5M117.2,67.7c34.8,0,63,28.2,63,63s-28.2,63-63,63-25.2-4-35.2-10.8c0,3.8,0,6.7,0,8.3h-40.5V25.2h42.5c0,16.3-.1,34.3-.3,52.2,9.7-6.2,21.3-9.7,33.6-9.7h0Z"/>
    <rect class="st2" x="175.9" y="70.2" width="42.4" height="121.1"/>
    <path class="st2" d="M384.4,235.3h6.1c1.9,0,3.6-.3,5-1.1,1.4-.8,2.5-1.8,3.3-3.2.8-1.4,1.2-3,1.2-4.9,0-1.9-.4-3.5-1.2-4.9s-1.9-2.4-3.3-3.2c-1.4-.8-3.1-1.1-5-1.1h-6.1s0,18.4,0,18.4ZM377.7,240.9v-29.6h13c3.1,0,5.9.6,8.2,1.8s4.2,2.9,5.6,5.1,2,4.8,2,7.8c0,3-.6,5.6-2,7.8-1.3,2.2-3.2,3.9-5.6,5.2-2.4,1.2-5.1,1.8-8.2,1.8h-13Z"/>
    <path class="st2" d="M451.7,241.4c-2.3,0-4.5-.3-6.6-.9-2.1-.6-3.8-1.5-5.1-2.5l2.3-5.2c1.2.9,2.7,1.6,4.4,2.2s3.4.9,5.1.9,2.4-.1,3.2-.4c.8-.3,1.4-.6,1.8-1.1.4-.5.6-1,.6-1.6s-.3-1.4-.9-1.9c-.6-.5-1.4-.9-2.4-1.1-1-.3-2.1-.6-3.3-.9s-2.4-.6-3.6-1c-1.2-.4-2.3-.9-3.3-1.5-1-.6-1.8-1.4-2.4-2.4-.6-1-.9-2.3-.9-3.9s.4-3.2,1.3-4.6c.9-1.4,2.2-2.5,4-3.3,1.8-.8,4-1.2,6.8-1.2s3.6.2,5.3.7,3.3,1.1,4.6,2l-2,5.2c-1.3-.8-2.7-1.4-4-1.8-1.3-.4-2.6-.6-3.9-.6s-2.3.2-3.2.5-1.4.7-1.8,1.2c-.4.5-.5,1.1-.5,1.7s.3,1.4.9,1.8c.6.5,1.4.8,2.4,1.1s2.1.6,3.3.9c1.2.3,2.4.6,3.6,1,1.2.4,2.3.9,3.3,1.5,1,.6,1.8,1.4,2.4,2.4.6,1,.9,2.3.9,3.9s-.5,3.2-1.4,4.6c-.9,1.4-2.2,2.5-4,3.3-1.8.9-4.1,1.3-6.8,1.3M470,240.9v-29.6h6.6v29.6h-6.6ZM504.4,234.3v-8.7h6.1v12c-1.6,1.2-3.4,2.1-5.4,2.8s-4.1,1-6.2,1-4.4-.4-6.3-1.1c-1.9-.8-3.6-1.8-5-3.2s-2.5-3-3.3-4.9c-.8-1.9-1.2-3.9-1.2-6.1s.4-4.3,1.2-6.1,1.9-3.5,3.3-4.9c1.4-1.4,3.1-2.4,5-3.2,1.9-.8,4-1.1,6.3-1.1s4.8.4,6.9,1.3,3.8,2.1,5.1,3.8l-4.3,4.1c-1-1.1-2.2-2-3.4-2.5s-2.6-.8-4-.8-2.7.2-3.8.7-2.1,1.1-3,1.9c-.8.9-1.5,1.9-1.9,3-.5,1.2-.7,2.4-.7,3.9s.2,2.6.7,3.8c.5,1.2,1.1,2.2,1.9,3,.8.9,1.8,1.5,3,2,1.1.4,2.4.7,3.8.7s2.6-.2,3.8-.7c.5-.2.9-.4,1.3-.6h0ZM419.8,223.3h13.4s0,5.2,0,5.2h-13.4s0,6.9,0,6.9h15.7v5.5h-22.2v-29.6h21.7v5.5h-15.1v6.5Z"/>
    <polygon class="st2" points="518.2 240.9 518.2 211.3 523.7 211.3 538 229.3 538 211.3 544.6 211.3 544.6 240.9 539.1 240.9 524.8 222.9 524.8 240.9 518.2 240.9"/>
    <path class="st2" d="M636.3,240.9h-6.6v-29.6h21.7v5.5h-15.1v7.9h13.3s0,5.4,0,5.4h-13.3s0,10.8,0,10.8h0ZM657.5,240.9v-29.6h6.7v29.6h-6.7ZM686.2,241.4c-2.2,0-4.3-.4-6.2-1.1-1.9-.8-3.5-1.8-5-3.2s-2.5-3-3.3-4.9c-.8-1.9-1.2-3.9-1.2-6.1s.4-4.3,1.2-6.1,1.9-3.5,3.3-4.9c1.4-1.4,3.1-2.4,5-3.2,1.9-.8,4-1.1,6.2-1.1s4.7.4,6.8,1.3,3.7,2.2,5.1,3.9l-4.3,4.1c-1-1.2-2.1-2-3.3-2.6s-2.5-.9-3.9-.9-2.6.2-3.7.7-2.1,1.1-2.9,1.9c-.8.9-1.5,1.9-1.9,3-.5,1.2-.7,2.4-.7,3.9s.2,2.7.7,3.9,1.1,2.2,1.9,3c.8.9,1.8,1.5,2.9,1.9s2.3.7,3.7.7,2.7-.3,3.9-.9,2.3-1.5,3.3-2.6l4.3,4.1c-1.4,1.7-3.1,3-5.1,3.9-2,.9-4.3,1.4-6.8,1.4h0ZM710.7,235.4h15.7v5.5h-22.2v-29.6h21.7v5.5h-15.1v6.5s13.3,0,13.3,0v5.3h-13.4s0,6.9,0,6.9h0ZM608.5,224.7h13.3s0,5.4,0,5.4h-13.3s0,10.8,0,10.8h-6.6v-29.6h21.7v5.5h-15.1v7.9h0Z"/>
    <path class="st1" d="M579.6,217.5c4.8,0,8.6,3.9,8.6,8.6s-3.9,8.6-8.6,8.6-8.6-3.9-8.6-8.6,3.9-8.6,8.6-8.6M579.6,210.9c8.4,0,15.3,6.8,15.3,15.3s-6.8,15.3-15.3,15.3-15.3-6.8-15.3-15.3,6.8-15.3,15.3-15.3Z"/>
  </g>
</svg>